<svg id="Capa_1" enable-background="new 0 0 512 512" height="512" viewBox="0 0 512 512" width="512" xmlns="http://www.w3.org/2000/svg"><g><path d="m191.524 282.143c4.143 0 7.5-3.358 7.5-7.5s-3.357-7.5-7.5-7.5h-24.134c-4.143 0-7.5 3.358-7.5 7.5v39.098c0 4.142 3.357 7.5 7.5 7.5h24.135c4.143 0 7.5-3.358 7.5-7.5s-3.357-7.5-7.5-7.5h-16.635v-4.549h11.325c4.143 0 7.5-3.358 7.5-7.5s-3.357-7.5-7.5-7.5h-11.325v-4.549z"/><path d="m239.967 311.241c4.143 0 7.5-3.358 7.5-7.5v-27.031c0-10.79-8.778-19.567-19.567-19.567s-19.567 8.778-19.567 19.567v27.031c0 4.142 3.357 7.5 7.5 7.5s7.5-3.358 7.5-7.5v-7.049h9.135v7.049c-.001 4.142 3.356 7.5 7.499 7.5zm-16.635-29.55v-4.981c0-2.519 2.049-4.567 4.567-4.567s4.567 2.049 4.567 4.567v4.981z"/><path d="m278.635 286.241h-14.36c-4.143 0-7.5 3.358-7.5 7.5s3.357 7.5 7.5 7.5h14.36c9.525 0 17.274-7.75 17.274-17.274 0-9.525-7.749-17.275-17.274-17.275h-4.586c-1.254 0-2.274-1.021-2.274-2.274s1.021-2.274 2.274-2.274h14.36c4.143 0 7.5-3.358 7.5-7.5s-3.357-7.5-7.5-7.5h-14.36c-9.525 0-17.274 7.75-17.274 17.274 0 9.525 7.749 17.274 17.274 17.274h4.586c1.254 0 2.274 1.021 2.274 2.275 0 1.253-1.02 2.274-2.274 2.274z"/><path d="m148.629 402.703c-4.143 0-7.5 3.358-7.5 7.5v27.031c0 10.79 8.778 19.567 19.567 19.567s19.567-8.778 19.567-19.567v-27.031c0-4.142-3.357-7.5-7.5-7.5s-7.5 3.358-7.5 7.5v27.031c0 2.519-2.049 4.567-4.567 4.567s-4.567-2.049-4.567-4.567v-27.031c0-4.142-3.358-7.5-7.5-7.5z"/><path d="m211.432 431.801h-14.36c-4.143 0-7.5 3.358-7.5 7.5s3.357 7.5 7.5 7.5h14.36c9.525 0 17.274-7.75 17.274-17.275s-7.749-17.274-17.274-17.274h-4.586c-1.254 0-2.274-1.021-2.274-2.275s1.021-2.274 2.274-2.274h14.36c4.143 0 7.5-3.358 7.5-7.5s-3.357-7.5-7.5-7.5h-14.36c-9.525 0-17.274 7.75-17.274 17.275s7.749 17.274 17.274 17.274h4.586c1.254 0 2.274 1.021 2.274 2.274 0 1.255-1.021 2.275-2.274 2.275z"/><path d="m269.648 397.703c4.143 0 7.5-3.358 7.5-7.5s-3.357-7.5-7.5-7.5h-24.135c-4.143 0-7.5 3.358-7.5 7.5v39.099c0 4.142 3.357 7.5 7.5 7.5h24.135c4.143 0 7.5-3.358 7.5-7.5s-3.357-7.5-7.5-7.5h-16.635v-4.549h11.334c4.143 0 7.5-3.358 7.5-7.5s-3.357-7.5-7.5-7.5h-11.334v-4.549h16.635z"/><path d="m344.685 326.326h-24.135c-4.143 0-7.5 3.358-7.5 7.5s3.357 7.5 7.5 7.5h4.567v31.598c0 4.142 3.357 7.5 7.5 7.5s7.5-3.358 7.5-7.5v-31.598h4.567c4.143 0 7.5-3.358 7.5-7.5s-3.356-7.5-7.499-7.5z"/><path d="m376.06 326.326c-10.789 0-19.567 8.778-19.567 19.567v14.963c0 10.79 8.778 19.567 19.567 19.567s19.567-8.778 19.567-19.567v-14.963c.001-10.789-8.778-19.567-19.567-19.567zm4.568 34.531c0 2.519-2.049 4.567-4.567 4.567s-4.567-2.049-4.567-4.567v-14.963c0-2.519 2.049-4.567 4.567-4.567s4.567 2.049 4.567 4.567z"/><path d="m424.689 335.477c-2.32-2.398-3.382-5.668-2.915-8.973 1.646-11.638-4.642-22.491-14.875-27.074 6.868-5.059 11.233-13.189 11.233-22.153v-80.013c0-7.849-4.671-14.897-11.898-17.958l-40.257-17.04c-.841-1.523-1.852-2.94-3.009-4.224 3.613-4.011 5.816-9.315 5.816-15.126v-8.726c0-12.476-10.15-22.625-22.626-22.625h-78.153c-4.244 0-7.697-3.453-7.697-7.697v-16.15c0-4.142-3.357-7.5-7.5-7.5s-7.5 3.358-7.5 7.5v16.15 4.81c0 8.6-6.997 15.596-15.597 15.596-4.143 0-7.5 3.358-7.5 7.5s3.357 7.5 7.5 7.5c11.526 0 21.581-6.409 26.797-15.847 3.285 1.938 7.097 3.072 11.166 3.131-1.803 3.617-2.823 7.689-2.823 11.997 0 7.656 3.21 14.572 8.348 19.489-5.138 4.917-8.348 11.833-8.348 19.489s3.21 14.572 8.348 19.489c-5.138 4.917-8.348 11.833-8.348 19.489 0 3.53.675 6.941 1.95 10.105l-32.943 6.418c-4.065.792-6.719 4.73-5.927 8.796.791 4.065 4.725 6.723 8.796 5.928l166.406-32.419v61.94c0 5.968-4.252 11.128-10.109 12.269l-1.237.241c-7.079-10.685-20.964-14.6-32.729-8.849-2.998 1.466-6.437 1.465-9.435 0-5.905-2.887-12.344-3.337-18.189-1.718v-14.903l10.576-14.156c2.479-3.318 1.799-8.018-1.52-10.497-3.32-2.479-8.018-1.799-10.498 1.52l-6.059 8.11-6.059-8.11c-2.481-3.318-7.178-3.999-10.498-1.52-3.318 2.479-3.998 7.179-1.52 10.497l10.576 14.156v20.453c0 1.475.432 2.847 1.167 4.007-.74 1.009-1.417 2.084-2.022 3.223-1.564 2.948-4.346 4.969-7.633 5.545-7.647 1.341-13.896 5.872-17.604 12.005l-195.312 38.048v-61.94c0-5.968 4.252-11.128 10.11-12.269l98.279-19.146c4.065-.792 6.719-4.73 5.927-8.796-.791-4.065-4.718-6.718-8.796-5.928l-50.099 9.76v-38.206c7.067 5.803 16.104 9.293 25.94 9.293 4.143 0 7.5-3.358 7.5-7.5s-3.357-7.5-7.5-7.5c-14.304 0-25.94-11.637-25.94-25.941 0-23.288 12.693-44.696 33.127-55.869 14.271-7.804 23.137-22.756 23.137-39.022v-64.431c0-2.815 2.29-5.105 5.105-5.105h1.492c17.643 0 31.995 14.353 31.995 31.995v6.722c0 4.142 3.357 7.5 7.5 7.5s7.5-3.358 7.5-7.5v-6.722c.002-25.913-21.081-46.995-46.994-46.995h-1.492c-11.086 0-20.105 9.019-20.105 20.105v64.431c0 10.78-5.875 20.689-15.334 25.861-25.246 13.805-40.93 40.255-40.93 69.03v72.777l-33.18 6.464c-12.889 2.511-22.242 13.863-22.242 26.993v80.949c0 7.85 4.671 14.898 11.898 17.958l11.383 4.818-1.038.202c-12.889 2.511-22.243 13.863-22.243 26.993v14.699c0 4.142 3.357 7.5 7.5 7.5s7.5-3.358 7.5-7.5v-14.699c0-5.968 4.252-11.128 10.11-12.27l177.489-34.571c.433.523.882 1.037 1.362 1.533 2.32 2.398 3.383 5.668 2.916 8.973-1.956 13.827 7.286 26.547 21.04 28.959 3.287.577 6.068 2.598 7.633 5.546.33.622.687 1.219 1.058 1.802v8.502c0 5.968-4.252 11.128-10.11 12.27l-208.519 40.615c-1.014.197-1.729-.244-2.068-.524s-.91-.903-.91-1.929v-10.207c0-4.142-3.357-7.5-7.5-7.5s-7.5 3.358-7.5 7.5v10.206c0 5.247 2.322 10.169 6.371 13.505 3.168 2.61 7.086 3.998 11.107 3.998 1.119 0 2.247-.107 3.367-.326l34.576-6.735v18.572c0 4.142 3.357 7.5 7.5 7.5s7.5-3.358 7.5-7.5v-21.493l95.344-18.571v40.064c0 4.142 3.357 7.5 7.5 7.5s7.5-3.358 7.5-7.5v-42.985l48.599-9.466c12.063-2.35 21.027-12.445 22.127-24.493 2.184.596 4.451.905 6.74.905 3.813 0 7.69-.853 11.361-2.648 3-1.466 6.439-1.465 9.436 0 12.549 6.134 27.499 1.274 34.044-11.061 1.564-2.948 4.347-4.97 7.634-5.546 13.754-2.412 22.996-15.133 21.04-28.959-.467-3.305.595-6.575 2.915-8.973 9.709-10.037 9.709-25.761-.001-35.797zm-144.84-196.924c0-6.611 5.378-11.989 11.989-11.989h54.318c4.205 0 7.626 3.421 7.626 7.625v8.726c0 4.205-3.421 7.626-7.626 7.626h-54.318c-6.611.001-11.989-5.377-11.989-11.988zm0 38.978c0-6.611 5.378-11.989 11.989-11.989h54.318c4.205 0 7.626 3.421 7.626 7.626v8.726c0 4.205-3.421 7.626-7.626 7.626h-54.318c-6.611 0-11.989-5.378-11.989-11.989zm0 38.978c0-6.611 5.378-11.989 11.989-11.989h54.318c3.366 0 6.224 2.194 7.233 5.225l-71.196 13.87c-1.515-2.046-2.344-4.502-2.344-7.106zm88.306-9.641c-.893-3.723-2.706-7.092-5.188-9.848 3.613-4.011 5.816-9.315 5.816-15.126v-2.151l31.603 13.377c1.668.706 2.746 2.333 2.746 4.144v2.79zm-122.361 126.643v28.122l-95.344 18.571v-28.118zm-148.021 37.242c-1.668-.706-2.745-2.333-2.745-4.144v-3.727l40.422-7.875v28.117l-5.786 1.127zm163.021-12.042v-28.122l25.997-5.065c.034.326.068.653.114.981.467 3.304-.596 6.574-2.916 8.973-5.411 5.594-7.802 12.956-7.181 20.114zm153.114 2.133c-5.56 5.747-8.105 13.585-6.985 21.503.815 5.77-3.041 11.078-8.78 12.084-7.876 1.382-14.543 6.226-18.292 13.29-2.731 5.146-8.971 7.175-14.206 4.615-7.184-3.511-15.425-3.511-22.61 0-5.233 2.558-11.475.532-14.206-4.615-3.747-7.064-10.414-11.909-18.291-13.291-5.739-1.007-9.596-6.315-8.78-12.084 1.12-7.918-1.426-15.755-6.986-21.503-4.052-4.188-4.052-10.75 0-14.938 5.561-5.748 8.106-13.585 6.986-21.503-.815-5.77 3.041-11.078 8.78-12.084 7.877-1.382 14.544-6.226 18.291-13.29 1.933-3.641 5.619-5.721 9.465-5.721 1.591 0 3.21.356 4.742 1.105 7.186 3.512 15.426 3.511 22.609 0 5.236-2.559 11.476-.53 14.206 4.616 3.749 7.064 10.416 11.908 18.292 13.29 5.739 1.007 9.596 6.315 8.78 12.084-1.12 7.918 1.426 15.756 6.985 21.503 4.052 4.19 4.052 10.751 0 14.939z"/></g></svg>