<svg id="Capa_1" enable-background="new 0 0 512.004 512.004" height="512" viewBox="0 0 512.004 512.004" width="512" xmlns="http://www.w3.org/2000/svg"><g><path d="m439.478 166.292c4.143 0 7.5-3.358 7.5-7.5v-62.786c0-9.46-7.379-17.477-16.799-18.25-29.558-2.428-128.311-14.522-158.096-68.202-3.269-5.893-9.431-9.554-16.082-9.554-6.649 0-12.811 3.661-16.082 9.554-29.784 53.68-128.537 65.774-158.095 68.202-9.42.774-16.799 8.791-16.799 18.251v209.62c0 110.778 152.462 189.83 183.026 204.553 2.526 1.217 5.238 1.825 7.949 1.825 2.712 0 5.425-.608 7.95-1.825 30.563-14.722 183.026-93.772 183.026-204.552v-112.836c0-4.142-3.357-7.5-7.5-7.5s-7.5 3.358-7.5 7.5v85.068h-26.245l.001-154.734c0-3.723-2.73-6.882-6.414-7.421-15.948-2.333-31.272-5.442-45.641-9.237-.606-3.238-2.162-6.218-4.542-8.598l-15.108-15.109c-3.117-3.117-7.261-4.833-11.667-4.833-4.407 0-8.551 1.716-11.668 4.833l-6.188 6.188c-17.027-8.029-31.639-17.516-43.469-28.233-2.857-2.589-7.213-2.589-10.07 0-18.782 17.015-44.354 30.781-76.002 40.916-18.934 6.063-39.888 10.798-62.279 14.073-3.685.539-6.415 3.698-6.415 7.421v45.813c0 4.142 3.357 7.5 7.5 7.5s7.5-3.358 7.5-7.5v-39.375c20.806-3.335 40.381-7.918 58.269-13.647 30.999-9.927 56.685-23.272 76.463-39.716 10.723 8.913 23.219 16.94 37.284 23.968l-37.312 37.312-17.681-17.682c-3.117-3.117-7.261-4.833-11.668-4.833s-8.551 1.716-11.668 4.833l-15.108 15.109c-6.433 6.434-6.433 16.901 0 23.334l38.271 38.271c4.769 4.769 11.109 7.395 17.854 7.395s13.085-2.626 17.854-7.395l75.309-75.309c.109-.109.202-.228.308-.339 13.091 3.473 26.932 6.394 41.29 8.698l-.001 148.297h-269.463v-74.92c0-4.142-3.357-7.5-7.5-7.5s-7.5 3.358-7.5 7.5v74.92h-26.244v-181.854c0-1.711 1.329-3.162 3.027-3.301 16.944-1.392 50.376-5.33 83.907-16.068 42.681-13.668 71.641-33.79 86.075-59.805.627-1.13 1.764-1.832 2.966-1.832s2.339.702 2.966 1.831c14.436 26.017 43.396 46.138 86.076 59.806 33.531 10.738 66.963 14.676 83.907 16.068 1.697.14 3.027 1.59 3.027 3.301v62.785c.001 4.143 3.358 7.501 7.501 7.501zm-100.948-55.694-75.31 75.31c-1.936 1.936-4.509 3.001-7.246 3.001-2.738 0-5.312-1.066-7.247-3.001l-38.271-38.271c-.585-.585-.585-1.537 0-2.122l15.108-15.109c.362-.363.777-.439 1.061-.439s.698.076 1.061.439l22.984 22.985c1.407 1.407 3.314 2.197 5.304 2.197s3.896-.79 5.304-2.197l60.023-60.023c.583-.584 1.535-.585 2.12 0l15.109 15.11c.363.363.439.776.439 1.06s-.075.696-.439 1.06zm17.491 322.97c-40.808 34.144-85.771 56.927-98.579 63.097-.916.44-1.965.44-2.881 0-12.809-6.17-57.772-28.955-98.578-63.097-19.208-16.071-34.795-32.269-46.747-48.528h33.964c36.317 40.443 88.379 70.186 109.309 81.201 1.09.573 2.289.862 3.491.862 1.002 0 2.007-.201 2.951-.604.229-.098.451-.207.667-.325 20.983-11.052 72.932-40.765 109.184-81.133h33.966c-11.952 16.258-27.539 32.456-46.747 48.527zm75.957-140.708v12.767c0 21.441-6.44 42.962-19.222 64.414h-84.569c-4.143 0-7.5 3.358-7.5 7.5s3.357 7.5 7.5 7.5h19.91c-31.824 31.583-72.132 55.314-92.099 66.066-19.986-10.762-60.28-34.488-92.096-66.066h130.285c4.143 0 7.5-3.358 7.5-7.5s-3.357-7.5-7.5-7.5h-194.939c-12.782-21.451-19.222-42.973-19.222-64.414v-12.767z"/><path d="m185.275 210.146h-14.091c-4.143 0-7.5 3.358-7.5 7.5v42.266c0 4.142 3.357 7.5 7.5 7.5h16.956c10.5 0 19.042-8.542 19.042-19.042 0-5.612-2.455-10.648-6.33-14.136.964-2.138 1.514-4.502 1.514-6.997.001-9.424-7.666-17.091-17.091-17.091zm-6.591 15h6.591c1.153 0 2.092.938 2.092 2.091s-.938 2.091-2.092 2.091h-6.591zm9.456 27.266h-9.456v-8.083h6.591 2.865c2.229 0 4.042 1.813 4.042 4.042s-1.813 4.041-4.042 4.041z"/><path d="m283.487 252.412h-15.523c-4.143 0-7.5 3.358-7.5 7.5s3.357 7.5 7.5 7.5h15.523c9.962 0 18.066-8.104 18.066-18.066s-8.104-18.066-18.066-18.066h-4.957c-1.69 0-3.066-1.375-3.066-3.066 0-1.69 1.376-3.066 3.066-3.066h15.523c4.143 0 7.5-3.358 7.5-7.5s-3.357-7.5-7.5-7.5h-15.523c-9.962 0-18.066 8.104-18.066 18.066s8.104 18.066 18.066 18.066h4.957c1.69 0 3.066 1.375 3.066 3.066s-1.376 3.066-3.066 3.066z"/><path d="m246.698 225.146c4.143 0 7.5-3.358 7.5-7.5s-3.357-7.5-7.5-7.5h-26.089c-4.143 0-7.5 3.358-7.5 7.5v42.265c0 4.142 3.357 7.5 7.5 7.5h26.089c4.143 0 7.5-3.358 7.5-7.5s-3.357-7.5-7.5-7.5h-18.589v-6.133h12.85c4.143 0 7.5-3.358 7.5-7.5s-3.357-7.5-7.5-7.5h-12.85v-6.132z"/><path d="m328.583 267.412c4.143 0 7.5-3.358 7.5-7.5v-34.765h5.545c4.143 0 7.5-3.358 7.5-7.5s-3.357-7.5-7.5-7.5h-26.09c-4.143 0-7.5 3.358-7.5 7.5s3.357 7.5 7.5 7.5h5.545v34.765c0 4.142 3.358 7.5 7.5 7.5z"/><path d="m132.881 353.276c3.885 3.884 9.046 6.023 14.535 6.023 9.163 0 17.297-6.16 19.78-14.98 1.122-3.987-1.2-8.129-5.188-9.251-3.986-1.124-8.129 1.2-9.252 5.187-.67 2.381-2.866 4.044-5.341 4.044-1.482 0-2.877-.579-3.928-1.629-1.044-1.044-1.619-2.435-1.619-3.917v-16.182c0-3.053 2.488-5.537 5.547-5.537 1.482 0 2.873.575 3.917 1.619.675.675 1.169 1.515 1.429 2.429 1.13 3.985 5.275 6.297 9.262 5.168 3.984-1.13 6.299-5.277 5.169-9.262-.956-3.37-2.772-6.462-5.252-8.942-3.878-3.877-9.036-6.013-14.524-6.013-11.33 0-20.547 9.213-20.547 20.537v16.182c.001 5.489 2.135 10.647 6.012 14.524z"/><path d="m316.586 359.299c9.165 0 17.299-6.16 19.78-14.981 1.122-3.987-1.201-8.129-5.188-9.251-3.987-1.121-8.129 1.201-9.251 5.188-.67 2.381-2.866 4.043-5.341 4.043-1.482 0-2.877-.579-3.928-1.629-1.044-1.044-1.619-2.435-1.619-3.917v-16.182c0-3.053 2.488-5.537 5.547-5.537 1.482 0 2.873.575 3.917 1.619.675.675 1.169 1.515 1.429 2.429 1.13 3.985 5.274 6.297 9.262 5.168 3.984-1.13 6.299-5.277 5.169-9.262-.956-3.37-2.772-6.462-5.252-8.942-3.878-3.877-9.036-6.013-14.524-6.013-11.33 0-20.547 9.213-20.547 20.537v16.182c0 5.489 2.135 10.647 6.012 14.524 3.884 3.885 9.045 6.024 14.534 6.024z"/><path d="m351.548 359.299h26.089c4.143 0 7.5-3.358 7.5-7.5s-3.357-7.5-7.5-7.5h-18.589v-6.132h12.85c4.143 0 7.5-3.358 7.5-7.5s-3.357-7.5-7.5-7.5h-12.85v-6.133h18.589c4.143 0 7.5-3.358 7.5-7.5s-3.357-7.5-7.5-7.5h-26.089c-4.143 0-7.5 3.358-7.5 7.5v42.265c0 4.142 3.358 7.5 7.5 7.5z"/><path d="m245.018 359.299c11.328 0 20.545-9.216 20.545-20.544v-16.176c0-11.329-9.217-20.545-20.545-20.545s-20.545 9.216-20.545 20.545v16.176c0 11.328 9.217 20.544 20.545 20.544zm-5.545-36.72c0-3.058 2.487-5.545 5.545-5.545s5.545 2.487 5.545 5.545v16.176c0 3.057-2.487 5.544-5.545 5.544s-5.545-2.487-5.545-5.544z"/><path d="m281.32 359.299c4.143 0 7.5-3.358 7.5-7.5v-42.265c0-4.142-3.357-7.5-7.5-7.5s-7.5 3.358-7.5 7.5v42.265c0 4.142 3.357 7.5 7.5 7.5z"/><path d="m182.276 359.299c4.143 0 7.5-3.358 7.5-7.5v-13.632h11.09v13.632c0 4.142 3.357 7.5 7.5 7.5s7.5-3.358 7.5-7.5v-42.265c0-4.142-3.357-7.5-7.5-7.5s-7.5 3.358-7.5 7.5v13.633h-11.09v-13.633c0-4.142-3.357-7.5-7.5-7.5s-7.5 3.358-7.5 7.5v42.265c0 4.142 3.357 7.5 7.5 7.5z"/></g></svg>