<svg id="Capa_1" enable-background="new 0 0 512.013 512.013" height="512" viewBox="0 0 512.013 512.013" width="512" xmlns="http://www.w3.org/2000/svg"><g><path d="m510.22 292.231-23.539-48.147c-1.82-3.722-6.312-5.262-10.032-3.444-3.722 1.819-5.264 6.311-3.444 10.032l11.754 24.041h-44.387l-40.826-83.505h42.813c.957 0 1.846.555 2.266 1.415l13.386 27.378c1.302 2.661 3.969 4.207 6.744 4.207 1.105 0 2.229-.245 3.288-.764 3.722-1.819 5.264-6.311 3.444-10.032l-13.387-27.377c-2.917-5.97-9.097-9.828-15.742-9.828h-209.08c-.755-4.26-2.698-8.113-5.481-11.199 3.624-4.018 5.835-9.336 5.835-15.16v-8.746c0-12.495-10.165-22.66-22.66-22.66h-78.332c-4.263 0-7.731-3.469-7.731-7.732v-57.001c0-25.963-21.123-47.085-47.086-47.085h-1.495c-11.102 0-20.134 9.032-20.134 20.134v64.577c0 10.811-5.893 20.749-15.377 25.936-25.301 13.832-41.017 40.337-41.017 69.171v229.704c0 4.142 3.357 7.5 7.5 7.5h79.1v64.221c0 9.662 7.861 17.523 17.523 17.523h311.716c9.662 0 17.522-7.861 17.522-17.523v-64.221h9.196c6.646 0 12.825-3.857 15.742-9.827l51.919-106.195c2.393-4.892 2.393-10.502.002-15.393zm-126.481-99.608 40.134 82.09h-44.391l-40.826-83.505h42.821c.955.004 1.844.559 2.262 1.415zm-227.01 82.087c-6.635 0-12.033-5.398-12.033-12.034s5.398-12.033 12.033-12.033h54.442c4.224 0 7.66 3.437 7.66 7.66v8.746c0 4.224-3.437 7.661-7.66 7.661zm-12.034-51.101c0-6.635 5.398-12.033 12.033-12.033h54.442c4.224 0 7.66 3.437 7.66 7.661v8.746c0 4.224-3.437 7.661-7.66 7.661h-54.442c-6.634-.001-12.033-5.4-12.033-12.035zm0-39.066c0-6.635 5.398-12.034 12.033-12.034h54.442c4.224 0 7.66 3.437 7.66 7.661v8.746c0 4.224-3.437 7.66-7.66 7.66h-54.442c-6.634 0-12.033-5.398-12.033-12.033zm83.301 58.6c3.624-4.019 5.835-9.336 5.835-15.161v-8.746c0-5.825-2.21-11.142-5.835-15.161 3.143-3.485 5.222-7.946 5.719-12.868h25.587c.955.004 1.843.56 2.261 1.415l40.134 82.09h-69.203c.863-2.395 1.337-4.975 1.337-7.664v-8.746c0-5.824-2.21-11.141-5.835-15.159zm90.399 31.569-40.826-83.505h42.822c.955.004 1.843.56 2.261 1.415l40.134 82.09zm-99.564-133.609v8.746c0 4.224-3.437 7.66-7.66 7.66h-54.442c-6.635 0-12.033-5.398-12.033-12.033s5.398-12.033 12.033-12.033h54.442c4.224-.001 7.66 3.436 7.66 7.66zm277.912 159.932-51.92 106.198c-.42.859-1.309 1.414-2.266 1.414h-9.317c-.99-8.73-8.412-15.538-17.402-15.538h-205.941c-4.143 0-7.5 3.358-7.5 7.5s3.357 7.5 7.5 7.5h205.941c1.391 0 2.522 1.132 2.522 2.523v77.235c0 1.391-1.132 2.523-2.522 2.523h-311.715c-1.392 0-2.523-1.132-2.523-2.523v-77.235c0-1.391 1.132-2.523 2.523-2.523h71.773c4.143 0 7.5-3.358 7.5-7.5s-3.357-7.5-7.5-7.5h-71.773c-8.99 0-16.412 6.808-17.403 15.538h-71.72v-118.936h52.553c4.143 0 7.5-3.358 7.5-7.5s-3.357-7.5-7.5-7.5h-52.553v-56.583c7.084 5.828 16.149 9.332 26.017 9.332 4.143 0 7.5-3.358 7.5-7.5s-3.357-7.5-7.5-7.5c-14.346 0-26.017-11.672-26.017-26.018 0-23.348 12.726-44.81 33.212-56.011 14.298-7.819 23.181-22.8 23.181-39.097v-64.577c0-2.831 2.303-5.134 5.134-5.134h1.495c17.692 0 32.086 14.394 32.086 32.085v57.001 4.821c0 8.629-7.021 15.649-15.649 15.649-4.143 0-7.5 3.358-7.5 7.5s3.357 7.5 7.5 7.5c11.553 0 21.629-6.427 26.852-15.89 3.301 1.951 7.134 3.09 11.225 3.144-1.813 3.629-2.84 7.716-2.84 12.041 0 7.675 3.22 14.608 8.375 19.533-5.154 4.926-8.375 11.859-8.375 19.534s3.22 14.608 8.374 19.533c-5.154 4.926-8.374 11.858-8.374 19.533s3.22 14.608 8.375 19.534c-5.154 4.925-8.375 11.858-8.375 19.533 0 4.322 1.025 8.408 2.836 12.035h-30.978c-4.143 0-7.5 3.358-7.5 7.5s3.357 7.5 7.5 7.5l390.738.002 4.452 9.107c.344.705.344 1.512-.001 2.217z"/><path d="m71.068 330.78c1.481 0 2.873.575 3.916 1.618.676.676 1.17 1.517 1.429 2.431 1.131 3.985 5.28 6.3 9.262 5.169 3.985-1.13 6.3-5.277 5.17-9.262-.956-3.368-2.771-6.46-5.254-8.944-3.878-3.877-9.035-6.012-14.522-6.012-11.33 0-20.548 9.213-20.548 20.537v16.182c0 5.488 2.136 10.646 6.013 14.524 3.885 3.884 9.047 6.023 14.535 6.023 9.163 0 17.297-6.16 19.78-14.98 1.122-3.987-1.2-8.129-5.188-9.251-3.986-1.125-8.129 1.2-9.252 5.187-.67 2.381-2.866 4.045-5.341 4.045-1.482 0-2.877-.579-3.928-1.63-1.045-1.044-1.62-2.436-1.62-3.917v-16.182c.001-3.054 2.489-5.538 5.548-5.538z"/><path d="m132.018 315.78c-4.143 0-7.5 3.358-7.5 7.5v29.221c0 3.058-2.487 5.545-5.545 5.545s-5.545-2.487-5.545-5.545v-29.221c0-4.142-3.357-7.5-7.5-7.5s-7.5 3.358-7.5 7.5v29.221c0 11.329 9.217 20.545 20.545 20.545s20.545-9.216 20.545-20.545v-29.221c0-4.142-3.358-7.5-7.5-7.5z"/><path d="m375.054 330.78c4.143 0 7.5-3.358 7.5-7.5s-3.357-7.5-7.5-7.5h-26.089c-4.143 0-7.5 3.358-7.5 7.5v42.266c0 4.142 3.357 7.5 7.5 7.5h26.089c4.143 0 7.5-3.358 7.5-7.5s-3.357-7.5-7.5-7.5h-18.589v-6.133h12.85c4.143 0 7.5-3.358 7.5-7.5s-3.357-7.5-7.5-7.5h-12.85v-6.133z"/><path d="m228.025 315.78h-25.607c-4.143 0-7.5 3.358-7.5 7.5s3.357 7.5 7.5 7.5h5.304v34.766c0 4.142 3.357 7.5 7.5 7.5s7.5-3.358 7.5-7.5v-34.766h5.304c4.143 0 7.5-3.358 7.5-7.5s-3.358-7.5-7.501-7.5z"/><path d="m169.859 336.913h-4.957c-1.69 0-3.066-1.375-3.066-3.066s1.376-3.066 3.066-3.066h15.523c4.143 0 7.5-3.358 7.5-7.5s-3.357-7.5-7.5-7.5h-15.523c-9.962 0-18.066 8.104-18.066 18.066s8.104 18.066 18.066 18.066h4.957c1.69 0 3.066 1.375 3.066 3.066s-1.376 3.066-3.066 3.066h-15.523c-4.143 0-7.5 3.358-7.5 7.5s3.357 7.5 7.5 7.5h15.523c9.962 0 18.066-8.104 18.066-18.066s-8.104-18.066-18.066-18.066z"/><path d="m261.765 315.78c-11.328 0-20.545 9.216-20.545 20.545v16.176c0 11.329 9.217 20.545 20.545 20.545s20.544-9.216 20.544-20.545v-16.176c0-11.329-9.216-20.545-20.544-20.545zm5.544 36.721c0 3.058-2.487 5.545-5.544 5.545-3.058 0-5.545-2.487-5.545-5.545v-16.176c0-3.058 2.487-5.545 5.545-5.545 3.057 0 5.544 2.487 5.544 5.545z"/><path d="m327.619 316.337c-2.822-1.153-6.058-.484-8.19 1.688l-7.691 7.836-7.692-7.836c-2.135-2.173-5.369-2.842-8.19-1.688-2.819 1.153-4.662 3.896-4.662 6.942v42.266c0 4.142 3.357 7.5 7.5 7.5s7.5-3.358 7.5-7.5v-23.919l.192.196c1.411 1.437 3.34 2.246 5.353 2.246 2.014 0 3.942-.81 5.353-2.246l.191-.195v23.918c0 4.142 3.357 7.5 7.5 7.5s7.5-3.358 7.5-7.5v-42.265c-.002-3.047-1.845-5.79-4.664-6.943z"/><path d="m431.759 334.921c0-10.555-8.587-19.141-19.141-19.141h-13.967c-4.143 0-7.5 3.358-7.5 7.5v42.266c0 4.142 3.357 7.5 7.5 7.5s7.5-3.358 7.5-7.5v-11.484h4.653l6.626 14.586c1.256 2.766 3.981 4.4 6.833 4.4 1.037 0 2.092-.217 3.098-.673 3.771-1.713 5.439-6.16 3.726-9.931l-5.943-13.083c4.043-3.512 6.615-8.677 6.615-14.44zm-25.608-4.141h6.467c2.283 0 4.141 1.858 4.141 4.141s-1.857 4.141-4.141 4.141h-6.467z"/><path d="m151.394 435.617c1.482 0 2.873.575 3.917 1.619.676.676 1.17 1.516 1.429 2.429 1.131 3.985 5.282 6.298 9.262 5.169 3.985-1.13 6.3-5.277 5.17-9.262-.956-3.37-2.772-6.462-5.253-8.943-3.878-3.877-9.036-6.013-14.524-6.013-11.33 0-20.547 9.213-20.547 20.537v16.182c0 5.489 2.135 10.647 6.014 14.525 3.885 3.884 9.046 6.022 14.533 6.022 9.164 0 17.298-6.16 19.781-14.98 1.122-3.987-1.2-8.129-5.188-9.251-3.986-1.125-8.129 1.2-9.252 5.187-.67 2.381-2.867 4.045-5.342 4.045-1.481 0-2.877-.579-3.928-1.63-1.044-1.044-1.619-2.435-1.619-3.917v-16.182c0-3.053 2.488-5.537 5.547-5.537z"/><path d="m320.564 477.883c9.163 0 17.297-6.16 19.78-14.98 1.122-3.987-1.2-8.129-5.188-9.251-3.988-1.125-8.129 1.2-9.252 5.187-.67 2.381-2.866 4.045-5.341 4.045-1.482 0-2.877-.579-3.928-1.63-1.044-1.044-1.619-2.435-1.619-3.917v-16.182c0-3.053 2.488-5.537 5.547-5.537 1.482 0 2.873.575 3.917 1.619.675.675 1.169 1.515 1.428 2.429 1.131 3.985 5.281 6.298 9.262 5.169 3.985-1.13 6.3-5.277 5.17-9.262-.956-3.371-2.772-6.463-5.252-8.943-3.878-3.877-9.036-6.013-14.524-6.013-11.33 0-20.547 9.213-20.547 20.537v16.182c0 5.489 2.135 10.647 6.012 14.524 3.885 3.884 9.047 6.023 14.535 6.023z"/><path d="m355.525 477.883h26.09c4.143 0 7.5-3.358 7.5-7.5s-3.357-7.5-7.5-7.5h-18.59v-6.133h12.85c4.143 0 7.5-3.358 7.5-7.5s-3.357-7.5-7.5-7.5h-12.85v-6.133h18.59c4.143 0 7.5-3.358 7.5-7.5s-3.357-7.5-7.5-7.5h-26.09c-4.143 0-7.5 3.358-7.5 7.5v42.266c0 4.142 3.358 7.5 7.5 7.5z"/><path d="m248.996 477.883c11.328 0 20.545-9.216 20.545-20.545v-16.176c0-11.329-9.217-20.545-20.545-20.545s-20.545 9.216-20.545 20.545v16.176c0 11.329 9.217 20.545 20.545 20.545zm-5.545-36.721c0-3.058 2.487-5.545 5.545-5.545s5.545 2.487 5.545 5.545v16.176c0 3.058-2.487 5.545-5.545 5.545s-5.545-2.487-5.545-5.545z"/><path d="m285.297 477.883c4.143 0 7.5-3.358 7.5-7.5v-42.266c0-4.142-3.357-7.5-7.5-7.5s-7.5 3.358-7.5 7.5v42.266c0 4.142 3.357 7.5 7.5 7.5z"/><path d="m193.754 428.117c0-4.142-3.357-7.5-7.5-7.5s-7.5 3.358-7.5 7.5v42.266c0 4.142 3.357 7.5 7.5 7.5s7.5-3.358 7.5-7.5v-13.633h11.089v13.633c0 4.142 3.357 7.5 7.5 7.5s7.5-3.358 7.5-7.5v-42.266c0-4.142-3.357-7.5-7.5-7.5s-7.5 3.358-7.5 7.5v13.633h-11.089z"/></g></svg>