<svg
  xmlns="http://www.w3.org/2000/svg"
  width="512"
  height="512"
  viewBox="0 0 512 512"
>
  <path
    fill="#a6f5cf"
    d="M398.026 439.349H108.789c-14.738 0-26.685-11.947-26.685-26.685V238.877c0-17.603 14.27-31.872 31.872-31.872h284.047c17.603 0 31.872 14.27 31.872 31.872V407.48c.001 17.6-14.268 31.869-31.869 31.869z"
  ></path>
  <path
    fill="#8aedbd"
    d="M398.023 207.004h-40c17.603 0 31.872 14.27 31.872 31.872v168.603c0 17.601-14.269 31.87-31.87 31.87h40c17.601 0 31.87-14.269 31.87-31.87V238.877c.001-17.603-14.269-31.873-31.872-31.873z"
  ></path>
  <path
    fill="#6967bf"
    d="M301.848 504.5h-91.696l15.411-65.151h60.874z"
  ></path>
  <path fill="#5b59b2" d="M286.437 439.349h-40l15.411 65.151h40z"></path>
  <path
    fill="#7776d0"
    d="M82.104 383.282v29.382c0 14.738 11.947 26.685 26.685 26.685h294.422c14.738 0 26.685-11.947 26.685-26.685v-29.382z"
  ></path>
  <path
    fill="#6967bf"
    d="M389.896 383.282v29.382c0 14.738-11.947 26.685-26.685 26.685h40c14.738 0 26.685-11.947 26.685-26.685v-29.382z"
  ></path>
  <g>
    <path
      fill="#fff5b5"
      d="M7.5 148.073V247c0 13.347 10.82 24.167 24.167 24.167h68.955l36.313 33.333v-33.333h20.771c13.347 0 24.167-10.82 24.167-24.167v-98.927c0-13.347-10.82-24.167-24.167-24.167H31.667c-13.347 0-24.167 10.82-24.167 24.167z"
    ></path>
    <path
      fill="#ffef8f"
      d="M157.706 123.906h-40c13.347 0 24.167 10.82 24.167 24.167V247c0 13.347-10.82 24.167-24.167 24.167h-17.084l36.313 33.333v-33.333h20.771c13.347 0 24.167-10.82 24.167-24.167v-98.927c.001-13.347-10.82-24.167-24.167-24.167z"
    ></path>
    <path
      fill="#ffd54d"
      d="M94.687 154.767l13.445 27.222 30.063 4.365-21.754 21.19 5.136 29.919-26.89-14.126-26.89 14.126 5.136-29.919-21.755-21.19 30.064-4.365z"
    ></path>
  </g>
  <g fill="#fff">
    <circle cx="209.29" cy="298.495" r="15.138"></circle>
    <circle cx="278.082" cy="260.645" r="15.138"></circle>
    <circle cx="278.082" cy="336.345" r="15.138"></circle>
  </g>
  <g>
    <path
      fill="#ff8ccc"
      d="M504.5 194.505v96.823c0 13.063-10.59 23.653-23.653 23.653h-67.489l-35.541 32.625v-32.625h-20.329c-13.063 0-23.653-10.59-23.653-23.653v-96.823c0-13.063 10.59-23.653 23.653-23.653h123.36c13.062 0 23.652 10.59 23.652 23.653z"
    ></path>
    <path
      fill="#ff78c2"
      d="M480.847 170.852h-40c13.063 0 23.653 10.59 23.653 23.653v96.823c0 13.063-10.59 23.654-23.653 23.654h40c13.063 0 23.653-10.59 23.653-23.654v-96.823c0-13.063-10.59-23.653-23.653-23.653z"
    ></path>
    <path
      fill="#fff"
      d="M419.167 219.29c5.98-10.818 20.591-15.079 31.182-8.367 9.321 5.907 12.055 18.437 9.604 28.639-4.919 20.482-22.556 34.687-40.787 43.003-18.23-8.317-35.867-22.521-40.787-43.003-2.457-10.231.298-22.697 9.604-28.639 10.573-6.749 25.219-2.424 31.184 8.367z"
    ></path>
  </g>
  <g>
    <path
      fill="#d4d9ff"
      d="M122.619 31.31v97.464c0 13.15 10.66 23.81 23.81 23.81h67.359l35.776 32.84v-32.84h21.04c13.15 0 23.81-10.66 23.81-23.81V31.31c0-13.15-10.66-23.81-23.81-23.81H146.428c-13.149 0-23.809 10.66-23.809 23.81z"
    ></path>
    <path
      fill="#c7cdff"
      d="M270.604 7.5h-40c13.15 0 23.81 10.66 23.81 23.81v97.464c0 13.15-10.66 23.81-23.81 23.81h-16.817l35.776 32.84v-32.84h21.04c13.15 0 23.81-10.66 23.81-23.81V31.31c.001-13.15-10.659-23.81-23.809-23.81z"
    ></path>
    <path
      fill="#7776d0"
      d="M174.944 123.486c-8.032 0-14.544-6.512-14.544-14.544V75.401c0-8.032 6.512-14.544 14.544-14.544s14.544 6.512 14.544 14.544v33.541c0 8.032-6.512 14.544-14.544 14.544z"
    ></path>
    <path
      fill="#fff"
      d="M255.849 73.661l.032-.124c1.125-4.394-2.204-8.665-6.74-8.646-1.686.007-3.483.012-5.272.014-7.655.008-19.752.016-24.973.016v-24.45c0-6.166-8.511-8.376-11.545-2.985l-16.363 33.457a15.434 15.434 0 00-1.569 6.779v25.654c0 4.333 1.822 8.467 5.021 11.39a22.083 22.083 0 0014.895 5.769c10.963 0 20.776-.044 29.122-.014a6.92 6.92 0 006.729-5.209l.021-.081c1.121-4.384 9.857-38.504 10.642-41.57z"
    ></path>
  </g>
  <g>
    <path d="M145.328 184.038a7.498 7.498 0 00-6.055-5.105l-26.163-3.799-11.699-23.688c-2.701-5.469-10.748-5.469-13.449 0l-11.698 23.688-26.164 3.799c-6.041.877-8.525 8.536-4.155 12.795l18.929 18.437-4.468 26.031c-1.034 6.016 5.505 10.732 10.88 7.908l23.401-12.295 23.401 12.295c5.401 2.837 11.913-1.895 10.88-7.908l-4.467-26.031 18.928-18.438a7.498 7.498 0 001.899-7.689zm-34.12 18.134a7.498 7.498 0 00-2.158 6.641l2.564 14.945-13.439-7.061c-2.326-1.147-4.651-1.147-6.977 0l-13.439 7.061 2.565-14.945a7.504 7.504 0 00-2.158-6.642l-10.862-10.579 15.017-2.181a7.496 7.496 0 005.646-4.101l6.72-13.607 6.721 13.607a7.5 7.5 0 005.646 4.101l15.016 2.181zM278.082 283.283c12.483 0 22.639-10.155 22.639-22.639s-10.155-22.639-22.639-22.639-22.639 10.155-22.639 22.639c0 1.269.105 2.514.307 3.727l-31.372 17.261a22.546 22.546 0 00-15.088-5.776c-12.483 0-22.639 10.155-22.639 22.639 0 12.482 10.155 22.638 22.639 22.638a22.55 22.55 0 0015.088-5.775l31.372 17.261a22.663 22.663 0 00-.307 3.726c0 12.483 10.155 22.639 22.639 22.639s22.639-10.155 22.639-22.639c0-12.482-10.155-22.638-22.639-22.638a22.549 22.549 0 00-15.089 5.776l-31.372-17.261a22.795 22.795 0 000-7.454l31.371-17.261a22.551 22.551 0 0015.09 5.776zm0-30.277c4.212 0 7.639 3.427 7.639 7.639s-3.427 7.639-7.639 7.639-7.639-3.427-7.639-7.639 3.427-7.639 7.639-7.639zm-68.792 53.127c-4.212 0-7.639-3.426-7.639-7.638s3.427-7.639 7.639-7.639c4.151 0 7.638 3.531 7.638 7.639 0 4.212-3.426 7.638-7.638 7.638zm68.792 22.574c4.212 0 7.639 3.426 7.639 7.638s-3.427 7.639-7.639 7.639-7.639-3.427-7.639-7.639 3.427-7.638 7.639-7.638z"></path>
    <path d="M480.847 163.352h-123.36c-17.179 0-31.154 13.976-31.154 31.153v4.999H189.374v-39.421h21.493l33.625 30.866c4.816 4.42 12.571.816 12.571-5.525v-25.341h13.54c17.265 0 31.311-14.046 31.311-31.31V31.31c0-17.264-14.046-31.31-31.311-31.31H146.429c-17.265 0-31.311 14.046-31.311 31.31v85.096H31.667C14.206 116.405 0 130.611 0 148.073v18.469c0 9.697 15 9.697 15 0v-18.469c0-9.19 7.477-16.668 16.667-16.668h83.561c1.341 16.037 14.822 28.678 31.2 28.678h27.945v86.916c0 9.19-7.478 16.668-16.668 16.668h-20.771a7.499 7.499 0 00-7.5 7.5v16.268l-23.742-21.793a7.498 7.498 0 00-5.071-1.975H31.667c-9.19 0-16.667-7.478-16.667-16.668v-39.306c0-9.697-15-9.697-15 0v39.306c0 17.462 14.206 31.668 31.667 31.668h42.938v133.997c0 18.85 15.335 34.185 34.185 34.185h107.293L204.219 497h-22.937c-4.143 0-7.5 3.357-7.5 7.5s3.357 7.5 7.5 7.5h149.436c4.143 0 7.5-3.357 7.5-7.5s-3.357-7.5-7.5-7.5h-22.937l-11.863-50.151h49.477c9.697 0 9.697-15 0-15H108.789c-10.578 0-19.185-8.606-19.185-19.185v-21.882h332.791v21.882c0 10.578-8.606 19.185-19.185 19.185h-17.867c-9.697 0-9.697 15 0 15h17.867c18.85 0 34.185-15.335 34.185-34.185v-90.182h43.451c17.178 0 31.153-13.976 31.153-31.153v-96.824c.001-17.178-13.975-31.153-31.152-31.153zm-350.729-34.579V31.31c0-8.993 7.316-16.31 16.311-16.31h124.175c8.993 0 16.311 7.316 16.311 16.31v97.464c0 8.993-7.317 16.31-16.311 16.31h-21.04a7.499 7.499 0 00-7.5 7.5v15.775l-23.205-21.301a7.498 7.498 0 00-5.071-1.975H146.43c-8.995 0-16.312-7.316-16.312-16.31zm150.386 318.076L292.366 497h-72.732l11.862-50.151zm141.892-71.067H89.604v-97.115h8.098l34.162 31.358c4.815 4.422 12.571.814 12.571-5.525v-25.833h13.271c17.462 0 31.668-14.206 31.668-31.668v-32.495h136.959v76.825c0 17.178 13.976 31.153 31.154 31.153h12.829v25.124c0 6.342 7.755 9.945 12.571 5.525l33.39-30.649h6.118v53.3zM497 291.329c0 8.907-7.246 16.153-16.153 16.153h-67.489a7.498 7.498 0 00-5.071 1.975l-22.97 21.084v-15.559c0-4.143-3.357-7.5-7.5-7.5h-20.329c-8.907 0-16.154-7.246-16.154-16.153v-96.824c0-8.907 7.247-16.153 16.154-16.153h123.359c8.907 0 16.153 7.246 16.153 16.153z"></path>
    <path d="M454.364 204.588c-10.776-6.827-25.639-5.195-35.197 3.029-9.553-8.219-24.453-9.888-35.218-3.016-12.914 8.245-15.719 24.811-12.861 36.712 6.469 26.933 30.949 41.682 44.967 48.075 2.075.902 4.15.902 6.225 0 14.018-6.394 38.498-21.143 44.968-48.075 2.866-11.938.058-28.524-12.884-36.725zm-1.703 33.223c-4.56 18.983-21.767 30.579-33.494 36.443-11.728-5.864-28.935-17.46-33.493-36.442-1.709-7.115-.077-16.465 6.348-20.567 6.956-4.44 16.727-1.297 20.582 5.674 2.802 5.072 10.324 5.073 13.127.001 3.885-7.026 13.689-10.046 20.604-5.661 6.417 4.066 8.04 13.417 6.326 20.552zM221.716 128.021c5.589-.009 11.178-.013 16.767-.001 6.591 0 12.331-4.454 13.952-10.787l.037-.143 10.643-41.567c1.78-8.898-4.2-18.131-13.943-18.131-7.592.022-15.184.023-22.776.027V40.471c0-13.585-19.673-18.78-25.782-6.28L188.828 58.29a21.938 21.938 0 00-13.883-4.933c-12.155 0-22.044 9.889-22.044 22.044v33.541c0 12.155 9.889 22.044 22.044 22.044 7 0 13.249-3.28 17.29-8.384a29.519 29.519 0 0017.101 5.433c4.31-.001 8.443-.008 12.38-.014zm-46.773-12.036a7.052 7.052 0 01-7.044-7.044V75.4c0-3.884 3.16-7.044 7.044-7.044s7.044 3.16 7.044 7.044c-.217 11.172-.137 22.368 0 33.541a7.052 7.052 0 01-7.044 7.044zm22.044-11.568V76.686a7.959 7.959 0 01.736-2.448l13.671-27.952v18.637c0 4.143 3.357 7.5 7.5 7.5 9.845 0 19.691.005 29.536-.027l-10.4 40.623c-9.565-.03-19.131.017-28.696.017-4.816-.002-11.615-3.132-12.347-8.619z"></path>
  </g>
</svg>