<svg id="Capa_1" enable-background="new 0 0 511.979 511.979" height="512" viewBox="0 0 511.979 511.979" width="512" xmlns="http://www.w3.org/2000/svg"><g><path d="m376 94.99h-361c-8.284 0-15 6.716-15 15v312c0 8.284 6.716 15 15 15h361c8.284 0 15-6.716 15-15v-312c0-8.284-6.716-15-15-15z" fill="#ecf9fd"/><path d="m376 94.99h-180.5v342h180.5c8.284 0 15-6.716 15-15v-312c0-8.284-6.716-15-15-15z" fill="#d9f3fc"/><path d="m316 34.99h-301c-8.284 0-15 6.716-15 15v60h331v-60c0-8.284-6.716-15-15-15z" fill="#8dc2eb"/><path d="m316 34.99h-120.5v75h135.5v-60c0-8.284-6.716-15-15-15z" fill="#5e9ff6"/><path d="m376 34.99h-60v75h75v-60c0-8.284-6.716-15-15-15z" fill="#3d6def"/><path d="m241 366.99h-151c-8.284 0-15-6.716-15-15s6.716-15 15-15h151c8.284 0 15 6.716 15 15s-6.716 15-15 15z" fill="#4e6ba6"/><path d="m241 336.99h-45.5v30h45.5c8.284 0 15-6.716 15-15s-6.716-15-15-15z" fill="#28487a"/><path d="m271 306.99h-181c-8.284 0-15-6.716-15-15s6.716-15 15-15h181c8.284 0 15 6.716 15 15s-6.716 15-15 15z" fill="#4e6ba6"/><path d="m271 276.99h-75.5v30h75.5c8.284 0 15-6.716 15-15s-6.716-15-15-15z" fill="#28487a"/><path d="m301 154.99h-211c-8.284 0-15 6.716-15 15v61c0 8.284 6.716 15 15 15h211c8.284 0 15-6.716 15-15v-61c0-8.284-6.716-15-15-15z" fill="#f37"/><path d="m301 154.99h-105.5v91h105.5c8.284 0 15-6.716 15-15v-61c0-8.284-6.716-15-15-15z" fill="#cc295f"/><path d="m484.575 415.601-79.697-196.293c-2.297-5.657-7.793-9.357-13.898-9.357s-11.602 3.7-13.898 9.357l-80 197.039c-1.877 4.624-1.332 9.88 1.456 14.02 2.787 4.141 7.451 6.623 12.442 6.623h160c.008.002.015 0 .02 0 8.285 0 15-6.716 15-15-.001-2.285-.512-4.45-1.425-6.389z" fill="#ffe470"/><path d="m484.575 415.601-79.697-196.293c-2.297-5.657-7.793-9.357-13.898-9.357v227.039h80c.008.002.015 0 .02 0 8.285 0 15-6.716 15-15-.001-2.285-.512-4.45-1.425-6.389z" fill="#fabe2c"/><path d="m320.579 358.47h140.801l-12.181-30h-116.439z" fill="#fabe2c"/><path d="m390.979 358.47h70.401l-12.181-30h-58.22z" fill="#ff9100"/><path d="m496.979 406.99h-212c-8.284 0-15 6.716-15 15v40c0 8.284 6.716 15 15 15h212c8.284 0 15-6.716 15-15v-40c0-8.284-6.715-15-15-15z" fill="#fabe2c"/><path d="m496.979 406.99h-106v70h106c8.284 0 15-6.716 15-15v-40c0-8.284-6.715-15-15-15z" fill="#ff9100"/></g></svg>