<svg id="Capa_1" enable-background="new 0 0 512 512" height="512" viewBox="0 0 512 512" width="512" xmlns="http://www.w3.org/2000/svg"><g><g id="_x3C_Group_x3E__57_"><path d="m358.032 468.306-72.673-192.749c-.093-.246-.189-.489-.288-.732-2.777-6.757-7.702-12.136-13.8-15.484-4.495-2.468-18.193.94-18.204.94-12.692.013-14.6 5.943-19.404 17.702-.082.199-71.149 186.894-71.149 186.894-5.253 13.805-9.367 23.679 4.426 28.936 3.131 1.194 8.753 6.128 11.915 6.128 5.384 0 10.58 2.923 14.971-.052s7.944-7.284 9.974-12.619l10.975-28.842c.443-1.164 1.559-1.933 2.804-1.933h76.801c1.249 0 2.367.773 2.807 1.942l10.843 28.757c5.21 13.819 20.628 20.799 34.437 15.581 13.806-5.217 20.775-20.648 15.565-34.469zm-122.788-69.288 18.076-52.167c.933-2.694 4.745-2.689 5.672.007l17.926 52.167c.669 1.948-.778 3.975-2.837 3.975h-36.002c-2.063 0-3.511-2.034-2.835-3.982z" fill="#faf063"/><g><path d="m183.851 468.23 73.341-192.74c.077-.202.156-.404.237-.603 2.772-6.786 7.716-12.175 13.835-15.534-4.495-2.468-9.621-3.845-15.001-3.845-.01 0-.024.001-.034.001-12.692.013-23.996 7.619-28.8 19.378-.082.199-.16.401-.237.603l-73.341 192.74c-5.253 13.805 1.67 29.257 15.463 34.514 3.131 1.194 6.344 1.759 9.506 1.759 5.386 0 10.617-1.642 15.008-4.619-10.035-6.798-14.477-19.828-9.977-31.654z" fill="#f5de46"/></g><path d="m173.067 260.334c-12.368-8.06-28.923-4.558-36.974 7.825l-37.002 56.893c-1.182 1.818-3.843 1.82-5.028.004l-37.461-57.424c-6.301-9.661-17.782-13.898-28.396-11.444-2.976.688-5.062 5.729-7.769 7.498-12.359 8.076-4.813 22.014 3.256 34.383l55.608 85.162c.319.49.489 1.062.487 1.646l-.34 79.197c-.036 14.772 1.241 34.469 16 34.505.023 0 2.361-.34 2.383-.34 12.671 0 21.83-2.573 24.573-14.432.445-1.926.683-3.931.688-5.992l.223-91.074c.001-.578.17-1.144.485-1.628l57.084-87.772c8.053-12.38 4.553-28.949-7.817-37.007z" fill="#a4ace3"/><path d="m492.351 260.334c-12.369-8.06-28.923-4.558-36.974 7.825l-37.002 56.892c-1.182 1.818-3.843 1.819-5.027.003l-37.46-57.423c-6.33-9.704-17.884-13.935-28.536-11.411-2.927.694-.323 1.94-2.987 3.681-12.359 8.075-15.836 24.65-7.767 37.018l60.151 83.732c.319.49.489 1.062.487 1.646l-1.021 84.537c-.036 14.772 4.135 32.389 18.894 32.426.023 0 23.837-3.595 26.58-15.453.445-1.926.683-3.931.688-5.991l.223-91.074c.001-.578.17-1.144.485-1.628l57.085-87.772c8.051-12.381 4.551-28.95-7.819-37.008z" fill="#a4ace3"/><g><path d="m116.371 484.496c-.022 0-.044 0-.066 0-14.759-.036-19.694-8.041-19.658-22.813l.222-83.971c.001-.585-.168-1.157-.487-1.646l-64.531-99.19c-4.15-6.361-5.239-13.832-3.644-20.689-2.976.688-5.884 1.902-8.59 3.67-12.359 8.076-15.836 24.65-7.766 37.018l57.531 88.19c.319.49.489 1.062.487 1.646l-.222 90.971c-.036 14.772 11.899 26.776 26.658 26.813h.066c12.67 0 23.283-8.834 26.026-20.692-1.937.449-3.953.693-6.026.693z" fill="#8a94db"/></g><g><path d="m435.656 484.496c-.022 0-.044 0-.066 0-14.759-.036-19.694-8.041-19.658-22.813l.222-83.971c.001-.585-.168-1.157-.487-1.646l-64.531-99.19c-4.15-6.361-5.239-13.832-3.644-20.689-2.976.688-5.884 1.902-8.59 3.67-12.359 8.076-15.836 24.65-7.766 37.018l57.531 88.19c.319.49.489 1.062.487 1.646l-.222 90.971c-.036 14.772 11.899 26.776 26.658 26.813h.066c12.67 0 23.283-8.834 26.026-20.692-1.938.449-3.953.693-6.026.693z" fill="#8a94db"/></g><path d="m483.203 177.896c2.915 10.032 5.183 20.339 6.757 30.874.717 4.803-2.206 5.606-1.782 10.499.253 2.921-2.052 5.435-4.984 5.438l-33.832-.916c-2.555.002-4.71-1.923-4.97-4.464-.353-3.458-.801-6.887-1.341-10.286-2.57-16.17-9.334-44.98-29.559-74.781-17.782-26.201-38.491-42.147-51.661-50.77-10.651-7.016-26.328-15.767-46.672-22.094-17.404-5.412-42.907-8.775-62.092-8.775-34.125 0-63.095 14.672-90.553 30.764-7.647 5.153-15.833 11.193-24.267 18.247-9.183 7.68-17.145 15.293-23.979 22.45-11.021 13.184-25.959 34.59-35.163 64.185-2.07 6.655-3.774 13.472-5.09 20.425-.963 5.088-5.771 9.426-6.309 14.652-.261 2.536-3.749 3.055-6.298 3.064l-35.745-.511c-2.941.01-1.786 1.058-1.532-1.872 5.649-65.254 34.124-123.616 81.955-162.89 40.814-33.514 93.048-53.631 149.981-53.631 59.345 0 113.585 21.858 155.108 57.963 11.93 9.964 26.86 24.544 40.701 44.686 17.763 25.851 26.665 50.579 31.327 67.743z" fill="#a4ace3"/><g fill="#8a94db"><path d="m49.462 208.776c-2.941.01-5.259-2.51-5.005-5.44 5.122-59.167 32.039-112.091 72.668-150.728-53.889 39.188-90.594 100.574-96.668 170.728-.254 2.93 2.064 5.45 5.005 5.44l41.347-.138c2.549-.008 4.688-1.934 4.949-4.47.538-5.227 1.306-10.385 2.269-15.474z"/><path d="m489.942 208.772-27.58.018c-2.555.002-4.71-1.923-4.97-4.464-.353-3.458-14.335-51.606-34.56-81.407-17.782-26.201-38.491-42.147-51.661-50.77-10.651-7.016-26.328-15.767-46.672-22.094-17.404-5.412-35.907-8.328-55.092-8.328-34.125 0-55.435 5.565-82.893 21.658-7.647 5.153-15.833 11.193-24.267 18.247-4.001 3.346-7.756 6.676-11.301 9.965 3.962-2.958 7.83-5.692 11.568-8.211 27.458-16.092 59.428-25.317 93.553-25.317 19.184 0 37.688 2.916 55.092 8.328 20.345 6.327 36.022 15.078 46.672 22.094 13.171 8.623 33.879 24.569 51.661 50.77 20.225 29.801 26.989 58.611 29.559 74.781.54 3.399.988 6.828 1.341 10.286.259 2.542 2.415 4.467 4.97 4.464l41.329-.037c2.931-.003 5.237-2.517 4.984-5.438-.425-4.895-1.015-9.741-1.733-14.545z"/></g><path d="m386.072 208.747c-14.92-57.877-67.469-100.637-130.005-100.637-9.287.123-16.473.625-28.148 2.782.001 0 .002-.001.003-.001-15.45 3.155-35.688 9.961-55.877 25.815-31.852 25.282-36.183 54.543-39.174 65.656-1.605 5.65-3.106 12.568-3.963 18.495-.433 2.992-1.537 4.452 1.486 4.459l45.382 3.423c2.379.005 4.389-1.699 4.85-4.033.526-2.67 1.191-5.291 1.986-7.854.937-3.02 1.989-5.727 3.054-8.145h-.009c0-.001.001-.002.002-.003.19-.431.38-.852.57-1.263 2.303-5.742 7.567-16.641 18.708-26.333 10.155-8.834 20.536-12.612 26.375-14.27 7.768-2.64 19.468-6.132 28.129-6.132 37.34 0 66.43 24.973 73.401 60.268.466 2.357 2.504 4.073 4.907 4.073l40.851-1.277c3.031 0 5.391-2.679 4.96-5.679-.701-4.863 3.718-4.664 2.512-9.344z" fill="#f5fcff"/><g fill="#e6f7fe"><path d="m157.883 208.654c-2.857-.005-5.084-2.384-4.675-5.047.81-5.275 1.986-10.439 3.503-15.468 2.409-8.43 9.825-30.681 30.6-51.002 3.601-3.522 5.063-16.566-15.265-.431-31.852 25.282-42.137 57.773-45.128 68.887-1.605 5.65-2.85 11.452-3.707 17.379-.433 2.992 1.924 5.664 4.947 5.67l47.618.097c2.379.005 4.389-1.699 4.85-4.033.526-2.67 1.191-5.291 1.986-7.854.937-3.02 1.989-5.727 3.054-8.145z"/><path d="m386.066 208.748h-34.372c-2.271 0-3.915-1.606-4.637-3.625-13.139-36.694-54.675-62.464-95.777-48.418-5.518 1.476-21.758 10.42-22.208 10.811.802-.258 1.554-.484 2.239-.679 7.768-2.64 16.095-4.072 24.756-4.072 37.34 0 68.464 26.615 75.435 61.91.466 2.357 2.504 4.073 4.907 4.073h47.57c3.031 0 5.391-2.679 4.96-5.679-.701-4.863-1.666-9.64-2.873-14.321z"/></g><path d="m420.854 184.961-.008-1.59c-.16-32.343-14.483-51.695-43.483-66.017l-1.426-.704c-1.521-.751-.993-3.041.704-3.05l1.59-.008c14.128-.07 21.237-4.809 33.247-11.206 15.484-8.249 28.357-21.225 36.423-37.557l.704-1.426c.751-1.521 3.041-.993 3.05.704l.008 1.59c.16 32.343 18.579 61.82 47.579 76.142l1.426.704c1.521.751.993 3.041-.704 3.05l-1.59.008c-18.564.092-36.185 6.199-50.537 16.87-10.652 7.92-17.128 9.414-23.229 21.768l-.704 1.426c-.752 1.522-3.042.993-3.05-.704z" fill="#faf063"/><g><path d="m411.478 102.384c-12.01 6.398-25.591 9.953-39.719 10.023l-1.59.008c-1.697.008-2.225 2.298-.704 3.05l1.426.704c29 14.322 47.419 43.799 47.579 76.142l.008 1.59c.008 1.697 2.298 2.226 3.05.704l.704-1.426c6.101-12.354 14.96-22.779 25.612-30.699-2.94-24.344-16.224-46.243-36.366-60.096z" fill="#f5de46"/></g><path d="m191.083 168.26-.751-.56c-15.27-11.389-24.913-11.672-41.929-3.108l-.837.421c-.893.449-1.782-.611-1.185-1.412l.56-.751c11.389-15.27 12.608-25.494 4.044-42.51l-.421-.837c-.449-.893.611-1.782 1.412-1.185l.751.56c5.708 4.257 7.508 2.052 14.203 3.586 11.217 2.57 23.197 1.266 33.853-4.097l.837-.421c.893-.449 1.782.611 1.185 1.412l-.56.751c-6.636 8.898-10.011 19.535-9.978 30.229.024 7.66-3.767 8.799-.193 15.9l.421.837c.45.892-.611 1.782-1.412 1.185z" fill="#faf063"/><path d="m197.637 172.788c-3.574-7.101-5.339-14.79-5.363-22.45-5.688-1.303-12.913-1.549-18.653-1.474-4.988.065-8.872-4.318-8.17-9.257.757-5.325 1.497-11.893 1.48-17.144-6.695-1.534-13.119-4.448-18.827-8.705l-.751-.56c-.801-.597-1.862.292-1.412 1.185l.418.83c8.566 17.017 6.783 37.413-4.605 52.686l-.56.751c-.597.801.292 1.861 1.185 1.412l.837-.421c17.015-8.563 37.409-6.779 52.678 4.609l.751.56c.801.597 1.861-.292 1.412-1.185z" fill="#f5de46"/></g><g><path d="m256.168 337.334c-.005 0-.009 0-.013 0-4.471 0-8.457 2.837-9.922 7.063l-18.077 52.167c-1.109 3.204-.599 6.765 1.366 9.527 1.966 2.762 5.164 4.411 8.555 4.411h36.003c3.385 0 6.579-1.645 8.546-4.399s2.484-6.311 1.385-9.514l-17.926-52.168c-1.455-4.233-5.441-7.082-9.917-7.087zm-11.768 58.168 11.738-33.873 11.639 33.873z"/><path d="m331.095 375.599c-1.461-3.876-5.787-5.835-9.663-4.372-3.876 1.461-5.834 5.788-4.372 9.663l33.958 90.065c3.743 9.931-1.281 21.059-11.202 24.806-8.23 3.316-21.069-.694-24.769-11.211l-10.843-28.759c-1.532-4.065-5.481-6.795-9.825-6.795h-76.803c-4.332 0-8.276 2.721-9.814 6.767l-10.975 28.841c-3.62 9.018-14.35 15.123-24.803 11.137-9.909-3.777-14.9-14.92-11.125-24.84l73.356-192.776c3.084-8.455 12.476-15.191 22.125-15.116 8.961-.116 18.603 6.153 22.004 15.196l26.374 69.95c1.462 3.877 5.789 5.837 9.663 4.372 3.876-1.461 5.834-5.788 4.372-9.663l-26.374-69.95c-5.308-14.451-20.257-24.988-36.114-24.905-15.408-.143-30.436 9.948-36.082 24.816l-73.343 192.743c-6.714 17.645 2.169 37.469 19.801 44.19 15.705 6.642 38.18-2.282 44.167-19.818l9.871-25.943h70.587l9.745 25.845c6.341 16.846 25.683 26.771 44.107 19.952 17.652-6.668 26.596-26.464 19.935-44.13z"/><path d="m177.16 254.051c-14.374-9.86-37.446-6.027-47.358 10.019l-33.236 51.102-33.687-51.638c-9.318-14.937-31.653-20.566-47.372-9.955-15.799 10.324-20.26 31.586-9.946 47.395l18.284 28.027c2.263 3.47 6.91 4.447 10.379 2.184 3.47-2.263 4.447-6.91 2.184-10.379l-18.284-28.027c-5.799-8.888-3.292-20.84 5.588-26.643 7.683-5.164 20.584-3.806 26.602 5.593l37.461 57.424c1.946 2.984 5.234 4.765 8.795 4.765h.008c3.564-.003 6.852-1.788 8.794-4.775l37.004-56.894c4.943-7.827 17.295-11.802 26.594-5.629 8.888 5.789 11.411 17.738 5.625 26.634l-57.088 87.775c-1.106 1.703-1.692 3.675-1.696 5.697l-.223 91.075c-.026 10.587-8.65 19.2-19.271 19.2-10.601-.026-19.204-8.682-19.177-19.294l.223-90.978c.004-2.052-.587-4.043-1.706-5.757l-19.993-30.647c-2.262-3.47-6.909-4.446-10.379-2.184-3.47 2.263-4.447 6.91-2.184 10.379l19.259 29.52-.22 89.628c-.046 18.884 15.269 34.286 34.226 34.332 18.825 0 34.178-15.325 34.224-34.164l.22-89.746 56.361-86.66c10.293-15.825 5.801-37.08-10.011-47.379z"/><path d="m496.453 254.051c-14.375-9.86-37.446-6.028-47.358 10.019l-33.236 51.101-33.687-51.638c-9.318-14.936-31.656-20.565-47.371-9.954-15.799 10.323-20.261 31.585-9.946 47.395l56.798 87.066-.22 89.628c-.046 18.884 15.269 34.286 34.226 34.332 18.825 0 34.178-15.325 34.224-34.164l.035-14.428c.01-4.143-3.34-7.509-7.482-7.519-.007 0-.013 0-.019 0-4.134 0-7.49 3.346-7.5 7.482l-.035 14.428c-.026 10.587-8.65 19.2-19.271 19.2-10.601-.026-19.204-8.682-19.177-19.294l.223-90.979c.003-2.051-.587-4.042-1.706-5.756l-57.532-88.192c-5.799-8.889-3.292-20.84 5.588-26.643 7.682-5.165 20.583-3.805 26.602 5.593l37.46 57.423c1.946 2.984 5.234 4.765 8.795 4.765h.008c3.565-.003 6.852-1.788 8.794-4.775l37.004-56.894c4.944-7.827 17.293-11.8 26.594-5.628 8.888 5.789 11.411 17.738 5.625 26.634l-57.094 87.784c-1.103 1.701-1.687 3.67-1.69 5.689l-.101 41.157c-.01 4.143 3.34 7.509 7.482 7.519h.019c4.134 0 7.49-3.346 7.5-7.482l.098-39.83 56.361-86.659c10.294-15.826 5.801-37.081-10.011-47.38z"/><path d="m19.565 236.279c3.095.193 7.171-2.176 7.961-7.01 3.603-56.767 28.141-109.911 69.092-149.642 2.973-2.884 3.045-7.633.16-10.606-2.884-2.971-7.632-3.044-10.606-.16-43.632 42.332-69.777 98.961-73.617 159.457-.262 4.135 2.876 7.698 7.01 7.961z"/><path d="m122.764 57.772c39.023-27.982 85.118-42.772 133.302-42.772 55.228 0 108.568 19.932 150.192 56.124 1.42 1.234 3.173 1.84 4.918 1.84 2.096 0 4.18-.873 5.663-2.579 2.718-3.126 2.387-7.862-.739-10.581-44.354-38.565-101.188-59.804-160.034-59.804-51.339 0-100.457 15.762-142.042 45.583-3.366 2.414-4.139 7.1-1.725 10.465 2.415 3.367 7.101 4.137 10.465 1.724z"/><path d="m481.117 170.692c-3.978 1.155-6.265 5.317-5.11 9.295 4.641 15.973 7.533 32.54 8.598 49.238.253 3.972 3.553 7.024 7.478 7.024 3.37.025 7.493-3.087 7.491-7.977-1.133-17.792-4.216-35.446-9.162-52.471-1.156-3.979-5.318-6.265-9.295-5.109z"/><path d="m70.76 236.1c3.122.247 7.196-2.067 8.065-6.889 2.919-37.093 17.157-71.777 41.176-100.301 2.668-3.169 2.262-7.901-.906-10.569-3.169-2.668-7.901-2.263-10.569.906-26.048 30.934-41.49 68.552-44.655 108.788-.325 4.13 2.759 7.741 6.889 8.065z"/><path d="m353.71 94.75c1.271.837 2.701 1.237 4.117 1.237 2.439 0 4.83-1.188 6.271-3.377 2.278-3.459 1.32-8.11-2.14-10.388-31.455-20.711-68.071-31.659-105.891-31.659-34.274 0-67.938 9.11-97.349 26.347-3.574 2.095-4.774 6.69-2.679 10.263s6.69 4.774 10.263 2.679c27.114-15.89 58.153-24.288 89.764-24.288 34.88 0 68.644 10.093 97.644 29.186z"/><path d="m437.88 206.632c-4.091.649-6.88 4.493-6.231 8.584.742 4.675 1.305 9.439 1.672 14.158.306 3.933 3.591 6.919 7.47 6.919 3.424.031 7.549-3.149 7.486-8.081-.397-5.116-1.008-10.281-1.813-15.35-.65-4.09-4.488-6.884-8.584-6.23z"/><path d="m131.896 190.106c-3.923-1.335-8.183.765-9.515 4.687-3.574 10.513-6.455 23.526-7.34 33.151-.379 4.125 2.657 7.776 6.782 8.155 3.141.294 7.219-1.972 8.156-6.782.644-7.005 2.936-18.905 6.604-29.696 1.333-3.922-.765-8.182-4.687-9.515z"/><path d="m382.175 229.499c.389 3.866 3.649 6.75 7.453 6.75 3.504.036 7.643-3.252 7.471-8.252-3.452-34.297-19.712-65.942-45.784-89.105-25.502-22.658-59.178-36.25-94.822-38.272-5.177-.295-18.855.853-26.152 2.189-4.074.746-6.773 4.654-6.026 8.729.746 4.073 4.652 6.775 8.729 6.025 6.853-1.255 19.274-2.165 22.598-1.967 67.057 3.804 120.271 51.707 126.533 113.903z"/><path d="m181.648 199.314c-4.811 9.792-8.236 20.477-9.161 28.582-.471 4.115 2.484 7.833 6.6 8.303 3.165.371 7.26-1.81 8.303-6.6.731-6.393 3.69-15.463 7.722-23.672 1.826-3.718.293-8.212-3.425-10.038s-8.213-.293-10.039 3.425z"/><path d="m229.466 175.289c6.717-2.817 18.401-5.024 26.6-5.024 34.346 0 63.882 25.596 68.703 59.538.532 3.743 3.742 6.446 7.416 6.446 3.626.049 7.826-3.442 7.436-8.556-2.832-19.933-12.777-38.247-28.002-51.569-15.374-13.451-35.104-20.86-55.553-20.86-8.766 0-22.712 2.127-32.403 6.192-3.819 1.603-5.617 5.997-4.015 9.818 1.603 3.819 6 5.618 9.818 4.015z"/><path d="m370.138 104.913c-4.245.02-7.877 2.922-8.832 7.059s1.036 8.338 4.841 10.216c27.53 12.778 45.332 41.131 44.835 71.752.126 3.758 3.445 9.143 9.131 9.065 3.406 0 6.58-1.911 8.144-5.078 12.776-27.527 41.13-45.33 71.748-44.835 4.245-.02 7.877-2.922 8.832-7.058.956-4.136-1.034-8.337-4.842-10.218-27.528-12.775-45.325-41.128-44.834-71.746-.02-4.244-2.921-7.876-7.056-8.832-4.138-.958-8.337 1.034-10.219 4.841-12.775 27.526-41.13 45.33-71.748 44.834zm75.638-22.276c4.291 22.887 16.97 43.178 35.661 57.069-22.887 4.291-43.18 16.97-57.07 35.661-4.291-22.888-16.97-43.179-35.661-57.069 22.888-4.291 43.181-16.971 57.07-35.661z"/><path d="m208.93 123.958c2.355-3.155 2.232-7.465-.298-10.482-1.913-2.313-6.904-4.14-11.107-1.695-14.167 7.29-32.607 5.668-45.578-4.483-3.156-2.352-7.465-2.227-10.479.304s-3.884 6.752-2.115 10.266c7.703 14.227 6.331 33.241-4.062 46.416-2.352 3.155-2.227 7.465.304 10.479 1.912 2.31 6.901 4.137 11.105 1.693 14.572-7.334 31.747-5.83 44.827 3.923 2.073 1.809 7.133 3.613 11.228.259 2.312-1.912 4.14-6.902 1.695-11.107-7.288-14.163-5.668-32.602 4.48-45.573zm-23.204 36.383c-8.82-3.165-19.227-4.492-29.837-2.61 3.505-9.549 4.403-19.825 2.61-29.836 9.547 3.503 19.827 4.402 29.837 2.61-3.503 9.549-4.403 19.824-2.61 29.836z"/></g></g></svg>